<svg width="40" height="40" viewBox="0 0 40 40" fill="none" xmlns="http://www.w3.org/2000/svg">
<path fill-rule="evenodd" clip-rule="evenodd" d="M24.5996 18C24.5996 21.3137 21.9133 24 18.5996 24C15.2859 24 12.5996 21.3137 12.5996 18C12.5996 14.6863 15.2859 12 18.5996 12C21.9133 12 24.5996 14.6863 24.5996 18ZM23.4398 24.3702C22.0959 25.3929 20.4186 26 18.5996 26C14.1813 26 10.5996 22.4183 10.5996 18C10.5996 13.5817 14.1813 10 18.5996 10C23.0179 10 26.5996 13.5817 26.5996 18C26.5996 19.876 25.9539 21.6012 24.8725 22.9654L29.3678 28.3598C29.7214 28.7841 29.6641 29.4147 29.2398 29.7682C28.8155 30.1218 28.185 30.0645 27.8314 29.6402L23.4398 24.3702Z" fill="#9E9E9E"/>
</svg>
